<?xml version="1.0" encoding="iso-8859-1"?>
<!-- Generator: Adobe Illustrator 18.1.1, SVG Export Plug-In . SVG Version: 6.00 Build 0)  -->
<svg xmlns="http://www.w3.org/2000/svg" xmlns:xlink="http://www.w3.org/1999/xlink" version="1.1" id="Capa_1" x="0px" y="0px" viewBox="0 0 267.45 267.45" style="enable-background:new 0 0 267.45 267.45;" xml:space="preserve">
<g>
	<path d="M0,89.149v89.152c0,8.953,7.261,16.214,16.208,16.214h210.726c8.953,0,16.203-7.261,16.203-16.214   v-16.208c0,0,5.445,0,12.156,0s12.156-7.261,12.156-16.208v-24.318c0-8.953-5.444-16.208-12.156-16.208h-12.156V89.149   c0-8.953-7.256-16.214-16.203-16.214H16.214C7.261,72.935,0,80.196,0,89.149z M54.663,99.516l33.015,18.009v-15.79l25.819,26.956   v-35.49l61.021,44.513v36.545l-46.732-36.257l0.125,32.553l-33.298-32.553v8.79L52.329,102.29   C49.245,98.368,50.29,97.128,54.663,99.516z" fill="#FFDA44"/>
</g>
</svg>
