<svg id="Слой_1" data-name="Слой 1" xmlns="http://www.w3.org/2000/svg" viewBox="0 0 356.61 425.69"><defs><style>.cls-1{fill:none;}.cls-2{fill:#ffda45;}.cls-3{fill:#fff;}</style></defs><title>Подарок</title><path class="cls-1" d="M349.11,101.64c5.59-10,5.36-20.06-.69-29.85-3.82-6.19-9.19-9.2-16.42-9.2-19.86,0-52.55,24.11-65.37,75.6C301.39,139.62,336.76,123.77,349.11,101.64Z" transform="translate(-71.19 -37.42)"/><path class="cls-1" d="M171.2,62.59c-7.23,0-12.6,3-16.42,9.2-6,9.79-6.28,19.83-.7,29.85,12.35,22.13,47.75,38,82.48,36.56C223.75,86.7,191.06,62.59,171.2,62.59Z" transform="translate(-71.19 -37.42)"/><rect class="cls-2" y="136.21" width="134.25" height="75.52"/><rect class="cls-2" x="222.36" y="136.21" width="134.25" height="75.52"/><rect class="cls-2" x="20.98" y="228.51" width="113.28" height="188.79"/><rect class="cls-2" x="222.36" y="228.51" width="113.28" height="188.79"/><path class="cls-3" d="M293.55,173.63v-4.2H255.06c-8.74,20.58-19.74,64.31,7.79,122.13l-22.73,10.82c-27.84-58.46-21.24-105.3-11.89-133H205.45V463.11h88.1V173.63Z" transform="translate(-71.19 -37.42)"/><path class="cls-2" d="M240.13,302.39l22.73-10.82c-27.53-57.82-16.54-101.54-7.79-122.13,1.1-2.58,2.16-4.82,3.11-6.66,4.21.41,8.46.68,12.73.68,42.72,0,83.92-20.38,100.2-49.55,10.07-18.06,9.63-37.71-1.26-55.34C361.41,44.93,348,37.42,332,37.42c-34.49,0-63.8,30.48-80.4,68.15C235,67.9,205.69,37.42,171.2,37.42c-16,0-29.41,7.51-37.83,21.14C122.48,76.19,122,95.84,132.1,113.9c16,28.74,56.27,48.91,98.31,49.5-.73,1.89-1.46,3.92-2.17,6C218.89,197.08,212.29,243.93,240.13,302.39ZM332,62.59c7.23,0,12.6,3,16.42,9.2,6,9.79,6.28,19.83.69,29.85-12.35,22.13-47.71,38-82.48,36.56C279.44,86.7,312.14,62.59,332,62.59Zm-177.91,39c-5.59-10-5.35-20.06.7-29.85,3.82-6.19,9.19-9.2,16.42-9.2,19.86,0,52.55,24.11,65.37,75.6C201.84,139.61,166.43,123.77,154.09,101.64Z" transform="translate(-71.19 -37.42)"/></svg>